<?xml version="1.0" encoding="UTF-8"?>
<svg width="48px" height="48px" viewBox="0 0 48 48" version="1.1" xmlns="http://www.w3.org/2000/svg" xmlns:xlink="http://www.w3.org/1999/xlink">
    <!-- Generator: Sketch 52.5 (67469) - http://www.bohemiancoding.com/sketch -->
    <title>企业上云</title>
    <desc>Created with Sketch.</desc>
    <g id="Page-1" stroke="none" stroke-width="1" fill="none" fill-rule="evenodd">
        <g id="Artboard" transform="translate(-735.000000, -573.000000)" fill="#FFFFFF" fill-rule="nonzero">
            <g id="Group-27" transform="translate(735.000000, 573.000000)">
                <polygon id="Path-4-Copy-3" points="3 41 20 41 20 43 1 43 1 9 46 9 46 32 44 32 44 11 3 11"></polygon>
                <polygon id="Path-4-Copy-4" points="7 6 7 10 5 10 5 4 43 4 43 10 41 10 41 6"></polygon>
                <polygon id="Path-12" points="2 12 3 11 17 20 16 21"></polygon>
                <polygon id="Path-12" transform="translate(38.500000, 16.000000) scale(-1, 1) translate(-38.500000, -16.000000) " points="31 12 32 11 46 20 45 21"></polygon>
                <polygon id="Path-13" points="16 21 16 19 32 19 32 21"></polygon>
                <path d="M40.6617435,42.3800986 C43.0302549,42.1746664 44.8,40.4250579 44.8,38.4 C44.8,36.2292319 42.774779,34.4 40.2,34.4 L38.6,34.4 L38.6,32.8 C38.6,30.6292319 36.574779,28.8 34,28.8 C31.425221,28.8 29.4,30.6292319 29.4,32.8 L29.4,34.4 L27.8,34.4 C25.225221,34.4 23.2,36.2292319 23.2,38.4 C23.2,40.5707681 25.225221,42.4 27.8,42.4 C27.8515336,42.4 27.9029442,42.3992643 27.9542205,42.3977966 L29.6,42.350688 L29.6,42.4 L40.4322917,42.4 L40.6617435,42.3800986 Z M27.6,43.9971415 C24.2683967,43.9017781 21.6,41.4323511 21.6,38.4 C21.6,35.3072054 24.3758346,32.8 27.8,32.8 C27.8,29.7072054 30.5758346,27.2 34,27.2 C37.4241654,27.2 40.2,29.7072054 40.2,32.8 C43.6241654,32.8 46.4,35.3072054 46.4,38.4 C46.4,41.3099709 43.9426404,43.701538 40.8,43.974114 L40.8,44 L28.0000818,44 L27.6,43.9971415 Z" id="Combined-Shape-Copy-2"></path>
                <polygon id="Path-11" points="29 41 29 40 39 40 39 41"></polygon>
            </g>
        </g>
    </g>
</svg>